<?xml version="1.0" encoding="UTF-8"?>
<svg id="Layer_1" xmlns="http://www.w3.org/2000/svg" xmlns:xlink="http://www.w3.org/1999/xlink" version="1.1" viewBox="0 0 900 900">
  <!-- Generator: Adobe Illustrator 30.3.0, SVG Export Plug-In . SVG Version: 2.1.3 Build 182)  -->
  <defs>
    <style>
      .st0 {
        fill: none;
      }

      .st1, .st2, .st3, .st4 {
        fill: #3f3f46;
      }

      .st1, .st2, .st5 {
        display: none;
      }

      .st2, .st3 {
        fill-rule: evenodd;
      }

      .st6 {
        fill: #fff;
      }

      .st7 {
        fill: #006769;
      }

      .st8 {
        clip-path: url(#clippath);
      }
    </style>
    <clipPath id="clippath">
      <rect class="st0" x="85.9" y="137.9" width="728.1" height="728.1" rx="94.1" ry="94.1"/>
    </clipPath>
  </defs>
  <rect class="st7" x="85.9" y="137.9" width="728.1" height="728.1" rx="94.1" ry="94.1"/>
  <g class="st8">
    <path class="st1" d="M-655.5,121.3h-275.1c-2.1,0-3.9,1.7-3.9,3.9v197.7c0,2.1,1.7,3.9,3.9,3.9h275c2.1,0,3.9-1.7,3.9-3.9V125.2c0-2.1-1.7-3.9-3.8-3.9h0ZM-849.1,196.7l32.7,23.5h-32.7v-23.5ZM-848.9,187.3h9.5l42.5,30.5v2.3h-6.2l-45.7-32.9h0ZM-826.2,187.3h29.3v21l-29.3-21ZM-796.9,161.9h-29.2l29.2-21v21ZM-796.9,129.1v2.3l-42.5,30.5h-9.5l45.7-32.9h6.3ZM-849.1,129.1h32.7l-32.7,23.5v-23.5ZM-856.8,129.1v36.7c0,2.1,1.7,3.9,3.9,3.9h56.1v9.9h-56.1c-2.1,0-3.9,1.7-3.9,3.9v36.7h-9.9v-36.7c0-2.1-1.7-3.9-3.9-3.9h-56.1v-9.9h56.1c2.1,0,3.9-1.7,3.9-3.9v-36.7h10ZM-907.2,220.2l32.7-23.5v23.5h-32.7ZM-926.7,140.9l29.2,21h-29.2v-21ZM-926.7,187.3h29.3l-29.3,21v-21ZM-926.7,217.9l42.5-30.5h9.5l-45.7,32.9h-6.2v-2.3ZM-874.5,152.6l-32.7-23.5h32.7v23.5ZM-926.7,129.1h6.2l45.7,32.9h-9.5l-42.5-30.5v-2.3h0ZM-659.4,319.1h-267.3s0-91.1,0-91.1h133.7c2.1,0,3.9-1.7,3.9-3.9v-95h129.8v190h0ZM-817.6,282.5c-.4,1.7-1.9,3-3.7,3l-11.2.3,2.2,10.9c.4,1.7-.5,3.5-2.1,4.3-1.6.8-3.5.4-4.6-1l-7.2-8.6-7.2,8.6c-.7.9-1.8,1.4-3,1.4s-1.1-.1-1.7-.4c-1.6-.8-2.5-2.5-2.1-4.3l2.2-10.9-11.2-.3c-1.8,0-3.3-1.3-3.7-3-.4-1.7.4-3.5,2-4.3l10-5.1-6.8-8.9c-1.1-1.4-1-3.4,0-4.7,1.1-1.4,3-1.8,4.6-1.1l10.2,4.6,2.7-10.8c.4-1.7,2-2.9,3.8-2.9s3.3,1.2,3.8,2.9l2.7,10.8,10.2-4.6c1.6-.7,3.5-.3,4.6,1.1,1.1,1.4,1.1,3.3,0,4.7l-6.8,8.9,10,5.1c1.6.8,2.4,2.6,2,4.3h0ZM-736.4,178.9c-.4-1.7.4-3.5,2-4.3l3.4-1.7-2.3-3c-1.1-1.4-1-3.4,0-4.7,1.1-1.4,3-1.8,4.6-1.1l3.5,1.6.9-3.7c.4-1.7,2-2.9,3.8-2.9s3.3,1.2,3.8,2.9l.9,3.7,3.5-1.6c1.6-.7,3.5-.3,4.6,1.1,1.1,1.4,1.1,3.3,0,4.7l-2.3,3,3.4,1.7c1.6.8,2.4,2.6,2,4.3-.4,1.7-1.9,3-3.7,3h-3.8c0,0,.8,3.8.8,3.8.4,1.7-.5,3.5-2.1,4.3s-3.5.4-4.6-1l-2.5-2.9-2.5,2.9c-.7.9-1.8,1.4-3,1.4s-1.1-.1-1.7-.4c-1.6-.8-2.5-2.5-2.1-4.3l.8-3.8h-3.8c-1.8-.1-3.3-1.4-3.7-3.1h0ZM-760.4,221.2l3.4-1.7-2.3-3.1c-1.1-1.4-1-3.4,0-4.7,1.1-1.4,3-1.8,4.6-1.1l3.5,1.6.9-3.7c.4-1.7,2-2.9,3.8-2.9s3.3,1.2,3.8,2.9l.9,3.7,3.5-1.6c1.6-.7,3.5-.3,4.6,1.1,1.1,1.4,1.1,3.3,0,4.7l-2.3,3,3.4,1.7c1.6.8,2.4,2.6,2,4.3-.4,1.7-1.9,3-3.7,3h-3.8c0,0,.8,3.8.8,3.8.4,1.7-.5,3.5-2.1,4.3-1.6.8-3.5.4-4.6-1l-2.5-2.9-2.5,2.9c-.7.9-1.8,1.4-3,1.4s-1.1-.1-1.7-.4c-1.6-.8-2.5-2.5-2.1-4.3l.8-3.8h-3.8c-1.8-.1-3.3-1.4-3.7-3.1-.4-1.7.4-3.5,2-4.3h0ZM-704.2,211.6c1.1-1.4,3-1.8,4.6-1.1l3.5,1.6.9-3.7c.4-1.7,2-2.9,3.8-2.9s3.3,1.2,3.8,2.9l.9,3.7,3.5-1.6c1.6-.7,3.5-.3,4.6,1.1,1.1,1.4,1.1,3.3,0,4.7l-2.3,3.1,3.4,1.7c1.6.8,2.4,2.6,2,4.3-.4,1.7-1.9,3-3.7,3h-3.8c0,0,.8,3.8.8,3.8.4,1.7-.5,3.5-2.1,4.3-.5.3-1.1.4-1.7.4-1.1,0-2.2-.5-3-1.4l-2.5-2.9-2.5,2.9c-1.1,1.4-3,1.8-4.6,1-1.6-.8-2.5-2.5-2.1-4.3l.8-3.8h-3.8c-1.8-.1-3.3-1.4-3.7-3.1-.4-1.7.4-3.5,2-4.3l3.4-1.7-2.3-3c-1.1-1.4-1-3.4,0-4.7h0ZM-702.9,286.8c-.4,1.7-1.9,3-3.7,3h-3.8c0,0,.8,3.8.8,3.8.4,1.7-.5,3.5-2.1,4.3-.5.3-1.1.4-1.7.4-1.1,0-2.2-.5-3-1.4l-2.5-2.9-2.5,2.9c-1.1,1.4-3,1.8-4.6,1-1.6-.8-2.5-2.5-2.1-4.3l.8-3.8h-3.8c-1.8-.1-3.3-1.4-3.7-3.1-.4-1.7.4-3.5,2-4.3l3.4-1.7-2.3-3c-1.1-1.4-1-3.4,0-4.7,1.1-1.4,3-1.8,4.6-1.1l3.5,1.6.9-3.7c.4-1.7,2-2.9,3.8-2.9s3.3,1.2,3.8,2.9l.9,3.7,3.5-1.6c1.6-.7,3.5-.3,4.6,1.1,1.1,1.4,1.1,3.3,0,4.7l-2.3,3,3.4,1.7c1.6.8,2.4,2.6,2,4.3h0Z"/>
    <path class="st1" d="M-647.5,134.6h-273.1c-1.2,0-2.2,1-2.2,2.2v179c0,1.2,1,2.2,2.2,2.2h273.1c1.2,0,2.2-1,2.2-2.2v-179c0-1.2-1-2.2-2.2-2.2ZM-832.8,159.4c.3.9,1.1,1.6,2.1,1.6h19v2.1h-58.3v-24.1h2.1v19.8c0,.6.2,1.1.6,1.5.4.4,1,.6,1.5.6h21.2c.4,0,.8-.1,1.1-.3l31.7-19.1v3.1l-20.1,12.3h0c-.8.5-1.2,1.5-1,2.4h0ZM-832.8,189l21.1,12.3v2.3l-31.8-18.3c-.3-.2-.7-.3-1.1-.3h-21.2c-.6,0-1.2.2-1.6.6-.4.4-.7,1-.7,1.6v38.5h-2.1v-42.7h58.3v2.1h-20.1c-1,0-1.8.7-2.1,1.6-.3.9.2,1.9,1,2.4h0ZM-811.7,208.6v7.4l-46-26.7h12.6l33.4,19.3ZM-893,185.2c-.3-.2-.7-.3-1.1-.3h-21.2c-.4,0-.8.1-1.1.3l-2.1,1.2v-3.6h28.7v42.7h-2.1v-38.5c0-.8-.4-1.5-1.1-1.9h0ZM-918.5,159.4l2.1,1.2c.3.2.7.3,1.1.3h21.2,0c.6,0,1.1-.2,1.5-.6.4-.4.6-1,.6-1.5v-19.8h2.1v24.1h-28.7v-3.6ZM-914.8,156.6l-3.8-2.2v-7.3l16.4,9.5h-12.6ZM-918.5,191.4l3.8-2.2h12.6l-16.4,9.5v-7.3ZM-887.7,178.5h-30.8s0-11.1,0-11.1h30.8c1.2,0,2.2-1,2.2-2.2v-26.3h11.1v26.3c0,1.2,1,2.2,2.2,2.2h60.5v11.1h-60.5c-1.2,0-2.2,1-2.2,2.2v44.9h-11.2v-44.9c0-.6-.2-1.1-.6-1.5-.4-.4-1-.6-1.5-.6h0ZM-815.8,138.9l-29.4,17.7h-12.6l30.5-17.7h11.5ZM-863.6,155v-16.1h27.7l-27.7,16.1ZM-896.3,138.9v16.1l-22.2-12.9v-3.2h22.2ZM-649.7,313.5h-268.8v-109.8l22.2-12.9v36.9c0,1.2,1,2.2,2.2,2.2h28.3c1.2,0,2.2-1,2.2-2.2v-36.9l53,30.8h0c.7.4,1.5.4,2.2,0,.7-.4,1.1-1.1,1.1-1.9v-19.8c0-.8-.4-1.5-1.1-1.9l-15.3-8.8h14.2c1.2,0,2.2-1,2.2-2.2v-28.3c0-.6-.2-1.1-.6-1.5-.4-.4-1-.6-1.5-.6h-13.5l14.6-8.9h0c.6-.4,1-1.1,1-1.9v-7h157.7s0,174.6,0,174.6ZM-813.9,267.6l5.5-11.7c.3-.7.2-1.6-.3-2.3-.5-.7-1.3-1-2.1-.8l-12.8,2.5-5.4-11.3h0c-.4-.8-1.1-1.2-2-1.2s-1.6.5-2,1.2l-5.4,11.4-12.3-2.2c-.8-.1-1.6.2-2.1.8-.5.6-.6,1.5-.3,2.2l5.2,11.1-10.1,7.9c-.7.5-1,1.4-.8,2.2.2.8.8,1.5,1.7,1.6l12.4,2.7-.2,13.1h0c0,.9.5,1.6,1.2,2,.8.4,1.7.2,2.3-.3l9.9-8.3,10.4,8.5c.7.5,1.6.6,2.3.3s1.2-1.1,1.2-2l-.2-13.6,12.5-2.3h0c.8-.1,1.5-.8,1.7-1.6.2-.8-.1-1.7-.8-2.2l-9.9-7.7ZM-820,277.6c-1,.2-1.8,1.1-1.8,2.2v10.7c.1,0-8.1-6.7-8.1-6.7h0c-.8-.7-2-.7-2.8,0l-7.6,6.4v-10.1c.1,0,.1,0,.1,0,0-1-.7-1.9-1.7-2.2l-9.6-2,7.8-6.1h0c.8-.6,1.1-1.7.6-2.6l-4.1-8.9,9.8,1.8c1,.2,1.9-.3,2.3-1.2l4.1-8.7,4.1,8.7c.4.9,1.4,1.4,2.4,1.2l10.3-2-4.4,9.3c-.4.9-.2,2,.6,2.6l7.5,5.8-9.6,1.8ZM-731.7,174.1l5.2,1.1v5.5h0c0,.8.5,1.6,1.2,2,.8.4,1.7.2,2.3-.3l4.2-3.5,4.4,3.6c.7.5,1.6.6,2.3.3.8-.4,1.2-1.1,1.2-2v-5.8c0,0,5.2-1,5.2-1,.8-.2,1.5-.8,1.7-1.6.2-.8-.1-1.7-.8-2.2l-4.2-3.2,2.3-4.9c.4-.7.3-1.6-.2-2.3s-1.3-1-2.1-.8l-5.5,1.1-2.3-4.8h0c-.4-.8-1.1-1.2-2-1.2s-1.6.5-2,1.2l-2.3,4.8-5.2-.9c-.8-.1-1.6.2-2.1.8-.5.6-.6,1.5-.2,2.2l2.2,4.7-4.3,3.4c-.7.5-1,1.4-.8,2.2.2.8.8,1.5,1.7,1.6h0ZM-723.6,166.7l-1.1-2.5,2.8.5h0c1,.2,1.9-.3,2.3-1.2l1-2.2,1,2.2c.4.9,1.4,1.4,2.4,1.2l2.9-.6-1.2,2.6c-.4.9-.2,2,.6,2.6l1.8,1.4-2.3.4h0c-1,.2-1.8,1.1-1.8,2.1v2.9s-2.2-1.8-2.2-1.8c-.8-.7-2-.6-2.8,0l-1.9,1.6v-2.6h0c0-1-.7-1.9-1.7-2.1l-2.4-.5,2-1.6h0c.8-.6,1.1-1.7.6-2.6h0ZM-763.3,212.3l5.2,1.1v5.5c0,.8.4,1.6,1.2,2,.8.4,1.7.2,2.3-.3l4.2-3.5,4.4,3.6h0c.6.5,1.6.6,2.3.3s1.2-1.1,1.2-2v-5.8c0,0,5.2-1,5.2-1,.8-.2,1.5-.8,1.7-1.6.2-.8-.1-1.7-.8-2.2l-4.2-3.2,2.3-4.9h0c.3-.7.2-1.6-.3-2.3s-1.3-1-2.1-.8l-5.5,1.1-2.3-4.8h0c-.4-.8-1.1-1.2-2-1.2s-1.6.5-2,1.2l-2.3,4.8-5.2-.9c-.8-.1-1.6.2-2.1.8-.5.6-.6,1.5-.2,2.2l2.2,4.7-4.3,3.4c-.7.5-1,1.4-.8,2.2.2.8.8,1.5,1.7,1.6h0ZM-755.3,204.8l-1.1-2.5,2.8.5h0c1,.2,1.9-.3,2.3-1.2l1-2.2,1,2.2c.4.9,1.4,1.4,2.4,1.2l2.9-.6-1.2,2.6h0c-.4.9-.2,2,.6,2.6l1.7,1.4-2.3.4c-1,.2-1.8,1.1-1.8,2.2v2.9s-2.2-1.8-2.2-1.8c-.8-.7-2-.6-2.8,0l-1.9,1.6v-2.6c0-1-.7-1.9-1.7-2.1l-2.4-.5,2-1.6h0c.8-.6,1-1.7.6-2.6h0ZM-704.8,188.6h0c-.5.6-.6,1.5-.2,2.2l2.2,4.7-4.3,3.3c-.7.5-1,1.4-.8,2.2.2.8.8,1.5,1.7,1.6l5.2,1.1v5.5c0,.8.4,1.6,1.2,2,.8.4,1.7.2,2.3-.3l4.2-3.5,4.4,3.6c.4.3.9.5,1.4.5s.7,0,.9-.2c.8-.4,1.2-1.1,1.2-2v-5.7c0,0,5.2-1,5.2-1h0c.8-.2,1.5-.8,1.7-1.6.2-.8-.1-1.7-.8-2.2l-4.2-3.2,2.3-4.9h0c.3-.7.2-1.6-.3-2.3-.5-.6-1.3-.9-2.1-.8l-5.5,1.1-2.3-4.8h0c-.4-.8-1.1-1.2-2-1.2s-1.6.5-2,1.2l-2.3,4.8-5.2-.9h0c-.8-.1-1.6.2-2.1.8h0ZM-698.2,195.3l-1.1-2.5,2.8.5h0c1,.2,1.9-.3,2.3-1.2l1-2.2,1,2.2c.4.9,1.4,1.4,2.4,1.2l2.9-.6-1.2,2.6h0c-.4.9-.2,2,.6,2.6l1.7,1.4-2.3.4h0c-1,.2-1.8,1.1-1.8,2.1v2.9s-2.2-1.8-2.2-1.8h0c-.8-.7-2-.7-2.8,0l-1.9,1.6v-2.6h0c0-1-.7-1.9-1.7-2.1l-2.4-.5,2-1.5h0c.8-.6,1-1.7.6-2.6h0ZM-705.3,274.5l-3.4-2.7,1.9-4.1c.3-.7.3-1.6-.3-2.3-.5-.6-1.3-1-2.1-.8l-4.5.9-1.9-4c-.4-.8-1.1-1.2-2-1.2s-1.6.5-2,1.2l-1.9,4-4.3-.8h0c-.8-.1-1.6.2-2.1.8-.5.6-.6,1.5-.3,2.2l1.8,3.8-3.5,2.7h0c-.7.5-1,1.4-.8,2.2.2.8.8,1.5,1.7,1.6l4.3.9v4.5c0,.8.4,1.6,1.2,2,.8.4,1.7.2,2.3-.3l3.4-2.9,3.6,3h0c.4.3.9.5,1.4.5s1.1-.2,1.5-.6.6-1,.6-1.6v-4.7c0,0,4.2-.8,4.2-.8h0c.8-.1,1.5-.8,1.7-1.6.2-.8-.1-1.7-.8-2.2h0ZM-713.1,275.3h0c-1,.2-1.8,1.1-1.8,2.1v1.9s-1.4-1.2-1.4-1.2h0c-.8-.7-2-.7-2.8,0l-1.2,1v-1.6c0-1-.7-1.9-1.7-2.1l-1.5-.3,1.2-.9h0c.8-.6,1.1-1.7.6-2.6l-.8-1.6,1.8.3c1,.2,1.9-.3,2.3-1.2l.6-1.3.6,1.3h0c.4.9,1.4,1.4,2.4,1.2l1.9-.4-.8,1.7c-.4.9-.2,2,.6,2.6l1,.8-1.4.3ZM-703,224.4h0c.3.5.4,1.1.2,1.6-.1.6-.5,1-1,1.3l-2.7,1.6,1.6,1.5h0c.9.8.9,2.2.1,3.1-.8.9-2.2.9-3.1.1l-2.2-2-1.7,1.8c-.8.9-2.2.9-3.1,0-.9-.8-.9-2.2,0-3.1l1.4-1.4-2.7-1.8h0c-1-.6-1.3-2-.6-3,.7-1,2-1.3,3-.6l1.7,1.1v-2.7c.1-1.2,1.1-2.1,2.3-2.1,1.2,0,2.1,1,2.1,2.2v2.7c0,0,1.8-1.1,1.8-1.1h0c1-.6,2.4-.2,3,.8h0Z"/>
    <path class="st2" d="M-647.7,129.4h-295.6v193.6h295.6v-193.6ZM-933,231.3h142.7v-91.7h132.5v173.3h-275.2v-81.5ZM-734.7,267.1l3.4,9.1,9.2-3.1-5,8.3,8.2,5.3-9.6,1.2.9,9.7-7-6.8-7,6.8.9-9.7-9.6-1.2,8.2-5.3-5-8.3,9.2,3.1s3.3-9.1,3.3-9.1ZM-867.6,246.5l5.6,15.3,15.4-5.1-8.4,13.9,13.6,8.9-16.1,2.1,1.6,16.2-11.7-11.3-11.7,11.3,1.6-16.2-16.1-2.1,13.6-8.9-8.4-13.9,15.4,5.1s5.6-15.3,5.6-15.3ZM-695.2,237.6h-6.5c0,0-2-6.3-2-6.3l-2.1,6.2h-6.5c0,0,5.3,3.8,5.3,3.8l-2.1,6.2,5.3-3.8,5.3,3.9-2-6.2,5.3-3.8ZM-761.1,197.6l3.4,9.1,9.2-3.1-5,8.3,8.2,5.3-9.6,1.2.9,9.7-7-6.8-7,6.8.9-9.7-9.6-1.2,8.2-5.3-5-8.3,9.2,3.1s3.3-9.1,3.3-9.1ZM-919.3,221.1h37.2v-21.7l-37.2,21.7ZM-861.7,139.6v35.7h61.2v10.2h-61.2v35.7h-10.2v-35.7h-61.2v-10.2h61.2v-35.7h10.2ZM-851.5,221.1h37.2l-37.2-21.7v21.7ZM-895.8,195.7h-37.2v21.7l37.2-21.7ZM-800.5,217.3v-21.7h-37.2l37.2,21.7ZM-683.3,181l3.4,9.1,9.2-3.1-5,8.3,8.2,5.3-9.7,1.2.9,9.7-7-6.8-7,6.8.9-9.7-9.7-1.2,8.2-5.3-5-8.3,9.2,3.1,3.4-9.1ZM-713.9,150.4l3.4,9.1,9.2-3.1-5,8.3,8.2,5.3-9.7,1.2.9,9.7-7-6.8-7,6.8.9-9.7-9.7-1.2,8.2-5.3-5-8.3,9.2,3.1,3.4-9.1ZM-837.8,165.1h37.2v-21.7l-37.2,21.7ZM-933,165.1h37.2l-37.2-21.7v21.7ZM-912.7,139.6h-6.6l37.2,21.7v-21.7h-30.6ZM-851.5,139.6v21.7l37.2-21.7h-37.2Z"/>
    <g class="st5">
      <path class="st4" d="M-703.3,229.6l-2.3-6.3-1.5-5.8c-.2-.8-.6-1.5-1.2-2.1l-7.7-9.2v-1c0-1.5-.8-3.3-1.9-4.4l-1.2-1c-.8-.8-1.7-1.3-3.1-1.3l-3.1-6c-.4-1.2-1.2-1.7-1.7-2.1l-9.2-7.1-1.5-6.3c-.2-.8-.6-1.3-1.2-2.1l-1.5-2.1-.8-4.4c-.4-1.7-1.5-3.5-3.1-4.2l-2.5-1.5-1.3-5.2c0-.2-.2-.4-.2-.8s0-.4-.2-.6l-3.3-7.1c-.8-2.1-2.9-3.7-5.4-3.7s-6,2.7-6,6v4.8l-1.3,8.3-2.9,11.3-.2.2-2.7-1.3-8.1-3.8-3.8-3.5,3.8-6.7c1-1.9,1-4.2-.2-6.3,0-.2-.2-.2-.4-.4l-1-1c-1.2-1.5-3.1-2.5-5.2-2.3l-6.5.6-7.5-2.9c-.8-.4-1.7-.8-2.7-.6l-9.4.6c-3.1.2-5.6,2.9-5.6,6v2.3l-1.9,5.8-1.2,1.5c-.8-1.7-2.3-2.9-3.8-3.1l-3.8-1c-1.9-.6-4,0-5.4,1.3l-5.4,4.8c-.4.4-1,1-1.3,1.7l-.8,1.5-7.9,4.2c-1.9,1.2-3.1,3.1-3.1,5.2v4l-2.3,3.5-8.4,2.7c-.4,0-.8.2-1,.4l-6.3,2.9h-4.6c-1,0-1.9.4-2.7.8l-9.6,5.2c-1.5.8-2.9,2.5-3.1,4.2l-1.5,8.8v2.7l1.5,5-1,2.5c-.6,1.9-.4,3.8.6,5.2l2.5,4,.8,3.8v.6c.2.4.2,1,.8,1.5l1.2,1.9c.2.4.4,1,.4,1.3v4.2c0,.8.2,1.9.6,2.5l3.3,6.1v.2l-.6,4-1.2,1.7c-1.5,2.1-1.5,4.8,0,6.9l1.3,1.7c.4.6.8.8,1,1.2l.2.2s.2.2.4.2l4,2.7s.2,0,.2.2c1,.4,1.9,1,3.1,1h5.8c1.2,0,2.3-.4,3.1-.8l5.6-3.3c.2,0,.2-.2.4-.4l2.5-2.3,6-.2h6.3c1.7,0,3.1-.6,4.2-1.7l4.2-4.2,4.4-2.1,4.6-.6c1.2-.2,2.5-.4,3.8-1.2l4.2-1.9c.2,0,.6-.2,1-.2s.6-.2.8-.2l6.1-.8,3.8,1.9c.4.2,1.2.6,1.9.6l4.8.6,6,7.7.2,1.3c.2,1.7,1.2,3.3,3.1,4.4l4,2.1c.8.6,1.9,1,2.9,1h2.5l4.8,2.9,2.1,2.7.8,3.3c.2,1.2,1,2.1,1.7,3.1l3.5,3.5c.8.8,2.1,1.3,2.5,1.3l5.8,1.7,3.3,1.5c1.7.8,3.8.8,5.6,0l1.7-1.2,4.4,2.9c.8.6,1.9,1,3.1,1s2.5-.4,3.6-1.2l.8-.6h.2c.4-.2.6-.4.8-.8l4-4,4.8-.6c2.1-.2,5-1.5,5.6-4.2l2.1-5.8,5.8-17.5,5.6-8.8v-.2c.2-.4.6-1,.6-1.7l2.3-10.2,1.7-5c0-1.5,0-3.1-.8-4.8h0ZM-825.9,249.4l-4.6.6c-1,0-1.7.4-2.1.6l-5.2,2.5c-.4.2-1,.6-1.7,1.2l-3.6,3.8h-12.1c-1.5,0-2.9.6-3.8,1.5l-2.3,1.7-5,3.1h-4.6l-3.1-2.1-.2-.2.6-1c.6-.8.8-1.5,1-2.1v-.2l.8-4.2c.2-1.7,0-3.3-.8-4.8l-3.1-5.8v-3.6c0-2.1-.6-4.2-1.7-5.6l-.8-1.9-.6-3.6c0-.8-.4-1.7-1-2.3l-2.3-3.5.8-2.1c.6-1.2.6-2.5.2-3.6l-1.3-5.6,1.2-7.5,8.3-4.4,4-.2c.8,0,1.3-.2,1.9-.4l7.7-3.3,9-2.9c1.2-.4,2.3-1.2,3.3-2.3l3.3-4.6.2-.2c.4-.8,1-1.9,1-3.1v-3.5l7.3-4c1.2-.6,1.9-1.3,2.7-2.7l.8-1.7,4.4-4,2.1.6.4.8c1,2.1,3.1,3.3,5.6,3.3l1.9-.2c1.5,0,3.3-1,4.6-2.5l1.9-2.7.2-.2.6-1.2s0-.2.2-.2l2.1-6.1c.4-.8.4-1.3.4-1.9v-1s7.1-.4,7.1-.4l7.5,2.9c.6.2,1.5.6,2.9.2l4-.4-3.1,5.8c-1.3,2.3-1,5.2,1.2,7.3l5.4,5,.4.4c.2.2.6.6,1,.8l8.3,4,4.4,2.3c1.3.8,3.1.8,4.6.4,1.5-.6,2.7-1.5,3.3-2.9l1-2.1c.2-.2.2-.6.4-.8.2-.2.2-.4.2-.6l3.3-11.5v-.2l1-6.1,1.2,5c.4,1.7,1.3,3.3,3.1,4l2.5,1.3.8,4.4v.2c.2.6.4,1.3,1.2,2.3l1.7,2.1,1.5,6.3c.2,1.3,1.2,2.7,2.1,3.3l9.4,7.3,3.5,6.7c1,1.7,2.7,2.9,4.8,3.1l.2.2v.8c0,1.3.4,2.7,1.3,3.8l7.9,9.4,1.5,5.4,2.1,6-2.1,3.8v.2c0,.2-.2.4-.2.8l-2.1,10-5.4,9.8c-.4.4-.4,1-.6,1.3l-7.9,21.5-4.2.6c-1.5.4-2.5,1-3.5,1.9l-4.2,4.4-4.2-2.7c-.8-.6-1.9-1-3.1-1s-1.9.2-2.9.8l-2.1,1-2.3-1.2c-.6-.4-1-.4-1.3-.6l-5.2-1.3-2.7-2.7-.8-2.7v-.2c-.2-.6-.4-1.3-1-2.1,0,0,0-.2-.2-.2l-2.7-3.3c-.4-.4-1-1-1.5-1.3l-5.6-3.1c-.8-.6-1.9-1-3.1-1h-2.5l-2.7-1.3v-1.2c-.2-1-.6-1.7-1.2-2.7l-6.9-8.8c-1-1.2-2.1-1.9-4-2.3l-5.4-.6-4-1.9c-1.3-.6-2.3-.6-3.1-.6l-7.1.8c-1.3.2-2.3.4-3.6,1l-4.4,1.9c-1,.4-1.3.6-1.9.6h0Z"/>
      <path class="st4" d="M-734.4,297.6h-1c-.4,0-1.2,0-1.9.4l-3.1,1-2.1-1.5-.2-.2c-.8-.4-1.9-1-3.1-1-3.3,0-6,2.7-6,6v.8c0,1,.4,1.9.6,2.3l1.5,3.3v3.1c0,1.7.8,3.3,1.9,4.2l1.9,1.7.4.6c1.2,1.9,3.1,3.1,5,3.1h.8c2.3,0,4.2-1.2,5.2-3.1l.8-1.3,4-5c.8-1,1.2-2.1,1.2-3.6v-4.8c-.4-3.3-2.9-5.8-5.9-5.8h0ZM-741.7,307.4c.8.2,1.7,0,2.5-.2l2.3-.8v1l-3.1,3.6q-.2-.2-.4-.2l-1.2-.8v-1.9c0-.2,0-.6-.2-.8h0Z"/>
    </g>
    <g>
      <path class="st3" d="M59,821.3c-41.3,2.1-49.3,1.3-91.8-29,23.1,40,51.8,55,112.9,55,85.3,0,177.4-151.8,210.7-151.8,24.8,0-7.2,44.4,52.5,63.1,18.6,5.9,17,22.1,16.3,31.8-2.9,41.2-50.8,82.5-50.8,99,0,16.3,24.6,35.9,46.2,56.3,12.1,11.4,17.7,36.3,29.2,47.8,19.5,19.5,22.6,9.7,22.6-3.9,0-37-51.8-53-51.8-83.4,0-58.9,68.2-104.2,95.7-153.3,22.2-12.8,49.5-8.6,73-8.6-.4,11.1-1,20.2-1,33.2,0,13.4-14.6,20.3-22.2,20.3h-14.9c-15.3,0-1.5,15.1,12.1,15.1,26.3,0,44.2-18.5,44.2-52.7,0-5.1.9-9.9,2.7-14.2,15.7.9,25.4,1,42.2,1,37.1,0,58.2-51.7,88.8-51.7,13.3,7.7,30.4,11.2,40.3,11.2,8.2,0,14.6-.1,14.6-10.3,0-12.4-10.2-23.7-17.8-33.5-12.2-9.8-13.9-26.8-36.3-29.8,1.8-14.3,7-28.7,14.9-42.4-20.2,7.7-40.1,22.5-48.8,48.9l.2-.7c-19.4,10.8-24.4,31.9-37.1,31.9-32.2,0-63.9-93.5-162.3-93.5-222.7,0-246.6,237-384.1,244h0Z"/>
      <path class="st3" d="M628.7,584.6c-1.2,17.1,1.4,32.8,8.1,47.1,3.5-8.5,8.1-16,13.8-22.6-8.9-6.1-15.5-13.4-21.9-24.5h0Z"/>
    </g>
  </g>
  <path class="st7" d="M168.2,181.3c-9.6,0-18.3-6.6-20.6-16.4-2.6-11.4,4.5-22.7,15.9-25.2L675.8,23.3c23.6-6.2,48.2-1.2,67.5,13.7,19.5,15,30.6,37.6,30.6,62.2v54.8c0,11.7-9.4,21.1-21.1,21.1s-21.1-9.4-21.1-21.1v-54.8c0-11.3-5.2-21.8-14.1-28.7-9-6.9-20.4-9.2-31.4-6.3-.3,0-.5.1-.8.2L172.9,180.8c-1.6.4-3.1.5-4.7.5Z"/>
  <path class="st6" d="M149.1,335.2c12.1-21.9,28.9-39,50.6-51.2,21.6-12.2,46.1-18.3,73.5-18.3s62.3,8.9,86.2,26.6c23.9,17.7,39.9,41.9,48,72.5h-75.8c-5.6-11.8-13.6-20.8-24-27-10.3-6.2-22.1-9.3-35.3-9.3-21.2,0-38.4,7.4-51.6,22.2-13.2,14.8-19.7,34.5-19.7,59.2s6.6,44.5,19.7,59.2c13.2,14.8,30.4,22.2,51.6,22.2s24.9-3.1,35.3-9.3c10.3-6.2,18.3-15.2,24-27h75.8c-8.1,30.6-24,54.7-48,72.3-23.9,17.6-52.7,26.4-86.2,26.4s-51.9-6.1-73.5-18.3c-21.6-12.2-38.5-29.2-50.6-51-12.1-21.8-18.1-46.6-18.1-74.6s6-52.9,18.1-74.8Z"/>
  <path class="st6" d="M752.9,268.9v282.9h-68.9v-169.7l-63.3,169.7h-55.6l-63.7-170.1v170.1h-68.9v-282.9h81.4l79.4,195.9,78.6-195.9h81Z"/>
</svg>